<?xml version="1.0" encoding="iso-8859-1"?>
<!-- Generator: Adobe Illustrator 16.0.0, SVG Export Plug-In . SVG Version: 6.00 Build 0)  -->
<!DOCTYPE svg PUBLIC "-//W3C//DTD SVG 1.1//EN" "http://www.w3.org/Graphics/SVG/1.1/DTD/svg11.dtd">
<svg version="1.1" id="Capa_1" xmlns="http://www.w3.org/2000/svg" xmlns:xlink="http://www.w3.org/1999/xlink" x="0px" y="0px"
	 width="479.219px" height="479.219px" viewBox="0 0 479.219 479.219" style="enable-background:new 0 0 479.219 479.219;"
	 xml:space="preserve">
<g>
	<g>
		<g>
			<path d="M441.36,353.781c12.156-25.031,19.781-52.625,21.844-81.781h-64.812c-1.75,17.406-6.75,33.781-13.625,49.125
				L441.36,353.781z"/>
			<path d="M369.048,348.969c-9.969,13.97-22.219,26-36.031,36.095l32.438,56.25c23.531-16,43.781-36.375,59.75-59.938
				L369.048,348.969z"/>
			<path d="M305.454,401.312c-15.344,7-31.938,11.375-49.438,13.156v64.75c29.188-2.063,56.781-9.688,81.781-21.875L305.454,401.312
				z"/>
			<path d="M224.016,414.375c-80.625-8.156-144-75.625-144-158.375c0-53.375,26.5-100.375,66.781-129.5l-32.344-56
				C55.078,110.781,16.015,178.813,16.015,256c0,118.313,91.813,214.969,208,223.188v-64.813H224.016z"/>
		</g>
		<path d="M399.017,240h64c-2.094-29.156-9.625-56.688-21.814-81.688l-55.688,32.156C392.548,205.844,397.267,222.438,399.017,240z"
			/>
		<path d="M369.423,162.812l55.906-32.25c-16-23.563-36.156-44.063-59.719-60.063l-32.344,56.032
			C347.204,136.594,359.329,148.938,369.423,162.812z"/>
		<rect x="208.016" width="64" height="192"/>
	</g>
</g>
<g>
</g>
<g>
</g>
<g>
</g>
<g>
</g>
<g>
</g>
<g>
</g>
<g>
</g>
<g>
</g>
<g>
</g>
<g>
</g>
<g>
</g>
<g>
</g>
<g>
</g>
<g>
</g>
<g>
</g>
</svg>
